<mxfile host="Electron" agent="Mozilla/5.0 (Windows NT 10.0; Win64; x64) AppleWebKit/537.36 (KHTML, like Gecko) draw.io/26.1.1 Chrome/132.0.6834.210 Electron/34.3.3 Safari/537.36" version="26.1.1">
  <diagram name="Page-1" id="qVeA97PvCYQEXvzQkoMA">
    <mxGraphModel dx="281" dy="613" grid="1" gridSize="10" guides="1" tooltips="1" connect="1" arrows="1" fold="1" page="1" pageScale="1" pageWidth="850" pageHeight="1100" background="none" math="0" shadow="0">
      <root>
        <mxCell id="0" />
        <mxCell id="1" parent="0" />
        <mxCell id="iH5wbvMUWhO04R_JZa5e-3" value="" style="rounded=0;whiteSpace=wrap;html=1;fillColor=none;dashed=1;" vertex="1" parent="1">
          <mxGeometry x="80" y="270" width="120" height="340" as="geometry" />
        </mxCell>
        <mxCell id="iH5wbvMUWhO04R_JZa5e-6" value="Sources" style="rounded=1;whiteSpace=wrap;html=1;strokeColor=none;" vertex="1" parent="1">
          <mxGeometry x="95" y="250" width="90" height="40" as="geometry" />
        </mxCell>
        <mxCell id="iH5wbvMUWhO04R_JZa5e-36" style="edgeStyle=orthogonalEdgeStyle;rounded=0;orthogonalLoop=1;jettySize=auto;html=1;entryX=0;entryY=0.5;entryDx=0;entryDy=0;" edge="1" parent="1" source="iH5wbvMUWhO04R_JZa5e-9" target="iH5wbvMUWhO04R_JZa5e-20">
          <mxGeometry relative="1" as="geometry" />
        </mxCell>
        <mxCell id="iH5wbvMUWhO04R_JZa5e-39" style="edgeStyle=orthogonalEdgeStyle;rounded=0;orthogonalLoop=1;jettySize=auto;html=1;entryX=0;entryY=0.75;entryDx=0;entryDy=0;" edge="1" parent="1" source="iH5wbvMUWhO04R_JZa5e-9" target="iH5wbvMUWhO04R_JZa5e-19">
          <mxGeometry relative="1" as="geometry" />
        </mxCell>
        <mxCell id="iH5wbvMUWhO04R_JZa5e-40" style="edgeStyle=orthogonalEdgeStyle;rounded=0;orthogonalLoop=1;jettySize=auto;html=1;entryX=0;entryY=0.75;entryDx=0;entryDy=0;" edge="1" parent="1" source="iH5wbvMUWhO04R_JZa5e-9" target="iH5wbvMUWhO04R_JZa5e-21">
          <mxGeometry relative="1" as="geometry" />
        </mxCell>
        <mxCell id="iH5wbvMUWhO04R_JZa5e-9" value="ERP" style="image;aspect=fixed;html=1;points=[];align=center;fontSize=12;image=img/lib/azure2/general/Folder_Blank.svg;" vertex="1" parent="1">
          <mxGeometry x="98.75" y="480" width="73.93" height="60" as="geometry" />
        </mxCell>
        <mxCell id="iH5wbvMUWhO04R_JZa5e-10" value="" style="rounded=1;whiteSpace=wrap;html=1;fillColor=none;dashed=1;strokeColor=#d6b656;" vertex="1" parent="1">
          <mxGeometry x="255" y="250" width="130" height="350" as="geometry" />
        </mxCell>
        <mxCell id="iH5wbvMUWhO04R_JZa5e-12" value="Bronze Layer" style="rounded=1;whiteSpace=wrap;html=1;fillColor=#ffe6cc;strokeColor=#d79b00;" vertex="1" parent="1">
          <mxGeometry x="265" y="220" width="120" height="30" as="geometry" />
        </mxCell>
        <mxCell id="iH5wbvMUWhO04R_JZa5e-13" value="crm_sales_details" style="rounded=1;whiteSpace=wrap;html=1;fillColor=#ffe6cc;strokeColor=#d79b00;" vertex="1" parent="1">
          <mxGeometry x="260" y="290" width="120" height="40" as="geometry" />
        </mxCell>
        <mxCell id="iH5wbvMUWhO04R_JZa5e-15" value="crm_csut_info" style="rounded=1;whiteSpace=wrap;html=1;fillColor=#ffe6cc;strokeColor=#d79b00;" vertex="1" parent="1">
          <mxGeometry x="260" y="340" width="120" height="40" as="geometry" />
        </mxCell>
        <mxCell id="iH5wbvMUWhO04R_JZa5e-16" value="crm_prd_info" style="whiteSpace=wrap;html=1;rounded=1;fillColor=#ffe6cc;strokeColor=#d79b00;" vertex="1" parent="1">
          <mxGeometry x="260" y="390" width="120" height="40" as="geometry" />
        </mxCell>
        <mxCell id="iH5wbvMUWhO04R_JZa5e-19" value="erp_px_cat_g1v2" style="whiteSpace=wrap;html=1;rounded=1;fillColor=#ffe6cc;strokeColor=#d79b00;" vertex="1" parent="1">
          <mxGeometry x="260" y="540" width="120" height="40" as="geometry" />
        </mxCell>
        <mxCell id="iH5wbvMUWhO04R_JZa5e-69" style="edgeStyle=orthogonalEdgeStyle;rounded=0;orthogonalLoop=1;jettySize=auto;html=1;entryX=0.005;entryY=0.733;entryDx=0;entryDy=0;entryPerimeter=0;" edge="1" parent="1" source="iH5wbvMUWhO04R_JZa5e-20" target="iH5wbvMUWhO04R_JZa5e-41">
          <mxGeometry relative="1" as="geometry">
            <mxPoint x="430" y="510" as="targetPoint" />
          </mxGeometry>
        </mxCell>
        <mxCell id="iH5wbvMUWhO04R_JZa5e-20" value="erp_loc_a101" style="whiteSpace=wrap;html=1;rounded=1;fillColor=#ffe6cc;strokeColor=#d79b00;" vertex="1" parent="1">
          <mxGeometry x="260" y="490" width="120" height="40" as="geometry" />
        </mxCell>
        <mxCell id="iH5wbvMUWhO04R_JZa5e-21" value="erp_cust_az12" style="whiteSpace=wrap;html=1;rounded=1;fillColor=#ffe6cc;strokeColor=#d79b00;" vertex="1" parent="1">
          <mxGeometry x="260" y="440" width="120" height="40" as="geometry" />
        </mxCell>
        <mxCell id="iH5wbvMUWhO04R_JZa5e-25" value="" style="endArrow=open;endFill=1;endSize=12;html=1;rounded=0;" edge="1" parent="1" target="iH5wbvMUWhO04R_JZa5e-8">
          <mxGeometry width="160" relative="1" as="geometry">
            <mxPoint x="110" y="340" as="sourcePoint" />
            <mxPoint x="270" y="340" as="targetPoint" />
          </mxGeometry>
        </mxCell>
        <mxCell id="iH5wbvMUWhO04R_JZa5e-8" value="CRM" style="image;aspect=fixed;html=1;points=[];align=center;fontSize=12;image=img/lib/azure2/general/Folder_Blank.svg;" vertex="1" parent="1">
          <mxGeometry x="105.71000000000001" y="332.83" width="66.97" height="54.35" as="geometry" />
        </mxCell>
        <mxCell id="iH5wbvMUWhO04R_JZa5e-32" style="edgeStyle=orthogonalEdgeStyle;rounded=0;orthogonalLoop=1;jettySize=auto;html=1;entryX=0;entryY=0.5;entryDx=0;entryDy=0;" edge="1" parent="1" source="iH5wbvMUWhO04R_JZa5e-8" target="iH5wbvMUWhO04R_JZa5e-15">
          <mxGeometry relative="1" as="geometry">
            <Array as="points" />
          </mxGeometry>
        </mxCell>
        <mxCell id="iH5wbvMUWhO04R_JZa5e-33" style="edgeStyle=orthogonalEdgeStyle;rounded=0;orthogonalLoop=1;jettySize=auto;html=1;entryX=0;entryY=0.137;entryDx=0;entryDy=0;entryPerimeter=0;" edge="1" parent="1" source="iH5wbvMUWhO04R_JZa5e-8" target="iH5wbvMUWhO04R_JZa5e-10">
          <mxGeometry relative="1" as="geometry" />
        </mxCell>
        <mxCell id="iH5wbvMUWhO04R_JZa5e-34" style="edgeStyle=orthogonalEdgeStyle;rounded=0;orthogonalLoop=1;jettySize=auto;html=1;entryX=0;entryY=0.423;entryDx=0;entryDy=0;entryPerimeter=0;" edge="1" parent="1" source="iH5wbvMUWhO04R_JZa5e-8" target="iH5wbvMUWhO04R_JZa5e-10">
          <mxGeometry relative="1" as="geometry" />
        </mxCell>
        <mxCell id="iH5wbvMUWhO04R_JZa5e-41" value="" style="rounded=1;whiteSpace=wrap;html=1;fillColor=none;fontColor=#333333;strokeColor=#666666;dashed=1;" vertex="1" parent="1">
          <mxGeometry x="440" y="250" width="130" height="350" as="geometry" />
        </mxCell>
        <mxCell id="iH5wbvMUWhO04R_JZa5e-42" value="Silver Layer" style="rounded=1;whiteSpace=wrap;html=1;fillColor=#f5f5f5;strokeColor=#666666;fontColor=#333333;" vertex="1" parent="1">
          <mxGeometry x="440" y="220" width="120" height="30" as="geometry" />
        </mxCell>
        <mxCell id="iH5wbvMUWhO04R_JZa5e-43" style="edgeStyle=orthogonalEdgeStyle;rounded=0;orthogonalLoop=1;jettySize=auto;html=1;exitX=0.5;exitY=1;exitDx=0;exitDy=0;" edge="1" parent="1" source="iH5wbvMUWhO04R_JZa5e-41" target="iH5wbvMUWhO04R_JZa5e-41">
          <mxGeometry relative="1" as="geometry" />
        </mxCell>
        <mxCell id="iH5wbvMUWhO04R_JZa5e-44" value="crm_sales_details" style="rounded=1;whiteSpace=wrap;html=1;fillColor=#f5f5f5;strokeColor=#666666;fontColor=#333333;" vertex="1" parent="1">
          <mxGeometry x="445" y="292.83" width="120" height="40" as="geometry" />
        </mxCell>
        <mxCell id="iH5wbvMUWhO04R_JZa5e-45" value="crm_cut_info" style="rounded=1;whiteSpace=wrap;html=1;fillColor=#f5f5f5;strokeColor=#666666;fontColor=#333333;" vertex="1" parent="1">
          <mxGeometry x="445" y="340" width="120" height="40" as="geometry" />
        </mxCell>
        <mxCell id="iH5wbvMUWhO04R_JZa5e-46" value="crm_prd_info" style="rounded=1;whiteSpace=wrap;html=1;fillColor=#f5f5f5;strokeColor=#666666;fontColor=#333333;" vertex="1" parent="1">
          <mxGeometry x="445" y="387.18" width="120" height="40" as="geometry" />
        </mxCell>
        <mxCell id="iH5wbvMUWhO04R_JZa5e-47" value="erp_cust_az12" style="rounded=1;whiteSpace=wrap;html=1;fillColor=#f5f5f5;strokeColor=#666666;fontColor=#333333;" vertex="1" parent="1">
          <mxGeometry x="445" y="440" width="120" height="40" as="geometry" />
        </mxCell>
        <mxCell id="iH5wbvMUWhO04R_JZa5e-48" value="erp_loc_a101" style="rounded=1;whiteSpace=wrap;html=1;fillColor=#f5f5f5;strokeColor=#666666;fontColor=#333333;" vertex="1" parent="1">
          <mxGeometry x="445" y="490" width="120" height="40" as="geometry" />
        </mxCell>
        <mxCell id="iH5wbvMUWhO04R_JZa5e-49" value="erp_px_cat_g1v2" style="rounded=1;whiteSpace=wrap;html=1;fillColor=#f5f5f5;strokeColor=#666666;fontColor=#333333;" vertex="1" parent="1">
          <mxGeometry x="445" y="540" width="120" height="40" as="geometry" />
        </mxCell>
        <mxCell id="iH5wbvMUWhO04R_JZa5e-50" style="edgeStyle=orthogonalEdgeStyle;rounded=0;orthogonalLoop=1;jettySize=auto;html=1;entryX=0.029;entryY=0.17;entryDx=0;entryDy=0;entryPerimeter=0;" edge="1" parent="1" source="iH5wbvMUWhO04R_JZa5e-13" target="iH5wbvMUWhO04R_JZa5e-41">
          <mxGeometry relative="1" as="geometry" />
        </mxCell>
        <mxCell id="iH5wbvMUWhO04R_JZa5e-51" style="edgeStyle=orthogonalEdgeStyle;rounded=0;orthogonalLoop=1;jettySize=auto;html=1;entryX=-0.014;entryY=0.314;entryDx=0;entryDy=0;entryPerimeter=0;" edge="1" parent="1" source="iH5wbvMUWhO04R_JZa5e-15" target="iH5wbvMUWhO04R_JZa5e-41">
          <mxGeometry relative="1" as="geometry" />
        </mxCell>
        <mxCell id="iH5wbvMUWhO04R_JZa5e-54" style="edgeStyle=orthogonalEdgeStyle;rounded=0;orthogonalLoop=1;jettySize=auto;html=1;entryX=-0.02;entryY=0.6;entryDx=0;entryDy=0;entryPerimeter=0;" edge="1" parent="1" source="iH5wbvMUWhO04R_JZa5e-21" target="iH5wbvMUWhO04R_JZa5e-41">
          <mxGeometry relative="1" as="geometry" />
        </mxCell>
        <mxCell id="iH5wbvMUWhO04R_JZa5e-60" style="edgeStyle=orthogonalEdgeStyle;rounded=0;orthogonalLoop=1;jettySize=auto;html=1;entryX=0;entryY=0.457;entryDx=0;entryDy=0;entryPerimeter=0;" edge="1" parent="1" source="iH5wbvMUWhO04R_JZa5e-16" target="iH5wbvMUWhO04R_JZa5e-41">
          <mxGeometry relative="1" as="geometry" />
        </mxCell>
        <mxCell id="iH5wbvMUWhO04R_JZa5e-62" style="edgeStyle=orthogonalEdgeStyle;rounded=0;orthogonalLoop=1;jettySize=auto;html=1;entryX=-0.008;entryY=0.886;entryDx=0;entryDy=0;entryPerimeter=0;" edge="1" parent="1" source="iH5wbvMUWhO04R_JZa5e-19" target="iH5wbvMUWhO04R_JZa5e-41">
          <mxGeometry relative="1" as="geometry" />
        </mxCell>
        <mxCell id="iH5wbvMUWhO04R_JZa5e-70" value="" style="rounded=1;whiteSpace=wrap;html=1;fillColor=none;strokeColor=#d6b656;dashed=1;" vertex="1" parent="1">
          <mxGeometry x="620" y="250" width="130" height="350" as="geometry" />
        </mxCell>
        <mxCell id="iH5wbvMUWhO04R_JZa5e-71" value="Gold Layer" style="rounded=1;whiteSpace=wrap;html=1;fillColor=#fff2cc;strokeColor=#d6b656;" vertex="1" parent="1">
          <mxGeometry x="627.5" y="220" width="115" height="30" as="geometry" />
        </mxCell>
        <mxCell id="iH5wbvMUWhO04R_JZa5e-74" value="fact_sales" style="rounded=1;whiteSpace=wrap;html=1;fillColor=#fff2cc;strokeColor=#d6b656;" vertex="1" parent="1">
          <mxGeometry x="627.5" y="300" width="120" height="40" as="geometry" />
        </mxCell>
        <mxCell id="iH5wbvMUWhO04R_JZa5e-75" value="dim_customers" style="rounded=1;whiteSpace=wrap;html=1;fillColor=#fff2cc;strokeColor=#d6b656;" vertex="1" parent="1">
          <mxGeometry x="625" y="430" width="120" height="40" as="geometry" />
        </mxCell>
        <mxCell id="iH5wbvMUWhO04R_JZa5e-76" value="dim_products" style="rounded=1;whiteSpace=wrap;html=1;fillColor=#fff2cc;strokeColor=#d6b656;" vertex="1" parent="1">
          <mxGeometry x="625" y="500" width="120" height="40" as="geometry" />
        </mxCell>
        <mxCell id="iH5wbvMUWhO04R_JZa5e-77" style="edgeStyle=orthogonalEdgeStyle;rounded=0;orthogonalLoop=1;jettySize=auto;html=1;entryX=0.023;entryY=0.179;entryDx=0;entryDy=0;entryPerimeter=0;" edge="1" parent="1" source="iH5wbvMUWhO04R_JZa5e-44" target="iH5wbvMUWhO04R_JZa5e-70">
          <mxGeometry relative="1" as="geometry" />
        </mxCell>
        <mxCell id="iH5wbvMUWhO04R_JZa5e-87" value="" style="endArrow=classic;html=1;rounded=0;exitX=0.983;exitY=0.319;exitDx=0;exitDy=0;exitPerimeter=0;entryX=0;entryY=0.25;entryDx=0;entryDy=0;" edge="1" parent="1" source="iH5wbvMUWhO04R_JZa5e-41" target="iH5wbvMUWhO04R_JZa5e-75">
          <mxGeometry width="50" height="50" relative="1" as="geometry">
            <mxPoint x="570" y="480" as="sourcePoint" />
            <mxPoint x="620" y="440" as="targetPoint" />
          </mxGeometry>
        </mxCell>
        <mxCell id="iH5wbvMUWhO04R_JZa5e-88" value="" style="endArrow=classic;html=1;rounded=0;exitX=1;exitY=0.5;exitDx=0;exitDy=0;entryX=0;entryY=0.5;entryDx=0;entryDy=0;" edge="1" parent="1" source="iH5wbvMUWhO04R_JZa5e-46" target="iH5wbvMUWhO04R_JZa5e-76">
          <mxGeometry width="50" height="50" relative="1" as="geometry">
            <mxPoint x="578" y="372" as="sourcePoint" />
            <mxPoint x="635" y="440" as="targetPoint" />
          </mxGeometry>
        </mxCell>
        <mxCell id="iH5wbvMUWhO04R_JZa5e-91" value="" style="endArrow=classic;html=1;rounded=0;exitX=0.971;exitY=0.611;exitDx=0;exitDy=0;exitPerimeter=0;entryX=0;entryY=0.25;entryDx=0;entryDy=0;" edge="1" parent="1" source="iH5wbvMUWhO04R_JZa5e-41" target="iH5wbvMUWhO04R_JZa5e-75">
          <mxGeometry width="50" height="50" relative="1" as="geometry">
            <mxPoint x="575" y="417" as="sourcePoint" />
            <mxPoint x="620" y="440" as="targetPoint" />
          </mxGeometry>
        </mxCell>
        <mxCell id="iH5wbvMUWhO04R_JZa5e-92" value="" style="endArrow=classic;html=1;rounded=0;exitX=1;exitY=0.5;exitDx=0;exitDy=0;" edge="1" parent="1" source="iH5wbvMUWhO04R_JZa5e-48">
          <mxGeometry width="50" height="50" relative="1" as="geometry">
            <mxPoint x="576" y="474" as="sourcePoint" />
            <mxPoint x="624" y="440" as="targetPoint" />
          </mxGeometry>
        </mxCell>
        <mxCell id="iH5wbvMUWhO04R_JZa5e-93" value="" style="endArrow=classic;html=1;rounded=0;exitX=1;exitY=0.25;exitDx=0;exitDy=0;entryX=0;entryY=0.5;entryDx=0;entryDy=0;" edge="1" parent="1" source="iH5wbvMUWhO04R_JZa5e-49" target="iH5wbvMUWhO04R_JZa5e-76">
          <mxGeometry width="50" height="50" relative="1" as="geometry">
            <mxPoint x="575" y="520" as="sourcePoint" />
            <mxPoint x="634" y="450" as="targetPoint" />
          </mxGeometry>
        </mxCell>
      </root>
    </mxGraphModel>
  </diagram>
</mxfile>
